<mxfile host="app.diagrams.net" modified="2024-02-19T18:32:20.522Z" agent="Mozilla/5.0 (X11; Linux x86_64) AppleWebKit/605.1.15 (KHTML, like Gecko) Version/17.0 Safari/605.1.15" etag="p4OV7NswmOSNgMZrvGuu" version="23.1.5" type="github">
  <diagram name="Page-1" id="Qqi-19rGS3lwAryXJwUb">
    <mxGraphModel dx="1434" dy="860" grid="1" gridSize="10" guides="1" tooltips="1" connect="1" arrows="1" fold="1" page="1" pageScale="1" pageWidth="827" pageHeight="1169" math="0" shadow="0">
      <root>
        <mxCell id="0" />
        <mxCell id="1" parent="0" />
      </root>
    </mxGraphModel>
  </diagram>
</mxfile>
